<svg xmlns="http://www.w3.org/2000/svg" width="161.863" height="24" viewBox="0 0 161.863 24">
  <g id="blue-heaven" transform="translate(-324 -23)">
    <path id="Blue_Heaven" data-name="Blue Heaven" d="M-43.453-2.2A6.139,6.139,0,0,1-44.391.609a7.4,7.4,0,0,1-2.027,2.1,9.361,9.361,0,0,1-2.777,1.3,11.464,11.464,0,0,1-3.187.445,7.406,7.406,0,0,1-1.137-.082,8.375,8.375,0,0,1-.949-.2q-.422-.117-.715-.223a2.6,2.6,0,0,1-.41-.176,1.039,1.039,0,0,1-.34-.293.962.962,0,0,1-.152-.5,2.518,2.518,0,0,1-.023-.293,1.137,1.137,0,0,1,.023-.223q.023-.117.082-.316t.152-.551q.047-.211.363-1.324t.762-2.719q.445-1.6.973-3.48t1.02-3.633q.492-1.758.891-3.176t.586-2.1q-.328.234-.645.492t-.645.563a.691.691,0,0,1-.691.223.768.768,0,0,1-.48-.574,4.662,4.662,0,0,1-.07-.492,2.02,2.02,0,0,1,.012-.48,1.5,1.5,0,0,1,.176-.527,13.523,13.523,0,0,1,1.512-.8q.738-.328,1.418-.586a2,2,0,0,1,.316-.609.9.9,0,0,1,.363-.281.851.851,0,0,1,.4-.047q.211.023.445.07a1.192,1.192,0,0,1,.68.328q.328-.047.633-.07t.633-.023a7.193,7.193,0,0,1,2.367.352,4.642,4.642,0,0,1,1.652.949,3.445,3.445,0,0,1,.926,1.395,4.056,4.056,0,0,1,.211,1.688,5.59,5.59,0,0,1-.41,1.6,8.515,8.515,0,0,1-.9,1.641,12.058,12.058,0,0,1-1.312,1.57,11.568,11.568,0,0,1-1.664,1.395,6.249,6.249,0,0,1,1.289.984A5.769,5.769,0,0,1-44.1-4.85a5.1,5.1,0,0,1,.539,1.336,4.239,4.239,0,0,1,.11,1.314Zm-7.758-5.742q-.047.234-.1.469t-.129.492a2.544,2.544,0,0,1,.949-.562A3.545,3.545,0,0,1-49.219-7.8a5.52,5.52,0,0,1,.633.035q.3.035.586.082a6.444,6.444,0,0,0,1.266-1.09,8.95,8.95,0,0,0,1.066-1.43,9.192,9.192,0,0,0,.75-1.559,6.148,6.148,0,0,0,.363-1.477,3.126,3.126,0,0,0-.551-2.4,2.47,2.47,0,0,0-1.957-.785,5.551,5.551,0,0,0-1.758.3q-.187.609-.469,1.512t-.6,1.98l-.668,2.273q-.348,1.2-.653,2.414Zm-.4,1.547q-.328,1.266-.656,2.742-.3,1.266-.656,2.941l-.75,3.574a.83.83,0,0,0,.375.164l.469.094a3.15,3.15,0,0,0,.563.047,5.774,5.774,0,0,0,2.145-.434,6.935,6.935,0,0,0,2-1.23A6.968,6.968,0,0,0-46.582-.434a6.338,6.338,0,0,0,.738-2.543,3.532,3.532,0,0,0-.082-1.137,3.406,3.406,0,0,0-.375-.914,3.749,3.749,0,0,0-.562-.727,4.385,4.385,0,0,0-.668-.551A12.956,12.956,0,0,1-49.9-5.32a1.383,1.383,0,0,1-.727.035,1.335,1.335,0,0,1-.516-.258,1.27,1.27,0,0,1-.328-.41,1.331,1.331,0,0,1-.138-.447Zm9.844,6.023q1.031-4.336,1.652-6.961t.949-4.008q.375-1.641.516-2.273.07-.445.117-.867a6.233,6.233,0,0,0,.047-.773,3.474,3.474,0,0,0-.07-.727,1.783,1.783,0,0,1,.41-.187q.223-.07.434-.117.258-.07.516-.117a2.641,2.641,0,0,1,.469-.047,1.676,1.676,0,0,1,.352.035.266.266,0,0,1,.211.152.573.573,0,0,1,.129.469q-.012.352-.059.727-.094.445-.211.961-.281,1.008-.773,2.906-.422,1.613-1.137,4.4T-40.008.234A.639.639,0,0,1-40.289.4a1.114,1.114,0,0,1-.3.047,2.843,2.843,0,0,1-.352-.023,1.483,1.483,0,0,1-.328-.141A1.585,1.585,0,0,1-41.55.037a.97.97,0,0,1-.216-.412Zm8.508.75A3.252,3.252,0,0,1-34.711.094,2.492,2.492,0,0,1-35.59-.6a2.514,2.514,0,0,1-.445-.891,3.416,3.416,0,0,1-.129-.879,10.1,10.1,0,0,1,.117-1.488q.117-.785.281-1.453t.293-1.137q.129-.469.176-.586a4.477,4.477,0,0,1,.551-1.184,1.715,1.715,0,0,1,.949-.691q.234-.047.492-.094a3.925,3.925,0,0,1,.434-.023,1.159,1.159,0,0,1,.41.07q-.633,1.617-1,2.7T-34.008-4.5a8.025,8.025,0,0,0-.258,1.242,2.693,2.693,0,0,0,.188,1.594,1.3,1.3,0,0,0,1.242.539,1.838,1.838,0,0,0,1.172-.457,5,5,0,0,0,1.031-1.184,4.189,4.189,0,0,1-.07-.773A8.238,8.238,0,0,1-30.574-5q.129-.715.3-1.336A10.872,10.872,0,0,1-29.9-7.449q.2-.492.34-.773a1.644,1.644,0,0,1,.469-.691,1.5,1.5,0,0,1,.68-.152,1.511,1.511,0,0,1,.316-.012,1.484,1.484,0,0,1,.223.035q.281.07.281.281,0,.375-.047,1.125a7.036,7.036,0,0,1-.281,1.547q-.164.656-.316,1.113t-.293.773a3.057,3.057,0,0,1-.281.516l-.258.363q.047.7.117,1.125a2.548,2.548,0,0,0,.176.645.639.639,0,0,0,.258.3.705.705,0,0,0,.34.082,1.411,1.411,0,0,0,.773-.316,7.348,7.348,0,0,0,.926-.8q.48-.48.961-1.055t.879-1.09q.4-.516.68-.9t.352-.48a.7.7,0,0,1,.316-.258.243.243,0,0,1,.246.035.359.359,0,0,1,.1.258.707.707,0,0,1-.105.387A18.225,18.225,0,0,1-24.2-3.5a16.536,16.536,0,0,1-1.477,1.84,10.286,10.286,0,0,1-1.581,1.4,2.641,2.641,0,0,1-1.5.563,1.23,1.23,0,0,1-1-.434,3.67,3.67,0,0,1-.621-1.254,4.12,4.12,0,0,1-1.266,1.3,2.975,2.975,0,0,1-1.613.458ZM-14.3-4.875a17.91,17.91,0,0,1-1.594,2,14.513,14.513,0,0,1-1.887,1.734A10.339,10.339,0,0,1-19.816.094a4.93,4.93,0,0,1-2.027.469A2.938,2.938,0,0,1-22.957.316a3.175,3.175,0,0,1-1.09-.762,3.712,3.712,0,0,1-.785-1.336,4.578,4.578,0,0,1-.176-1.992,6.173,6.173,0,0,1,.6-2.027,9.234,9.234,0,0,1,1.242-1.957A7.066,7.066,0,0,1-21.5-9.234a3.456,3.456,0,0,1,1.863-.586,1.652,1.652,0,0,1,1.289.445A1.429,1.429,0,0,1-18-8.273a3.38,3.38,0,0,1-.41,1.336,5.41,5.41,0,0,1-.809,1.1,8.207,8.207,0,0,1-1,.891q-.527.4-1,.727-.516.352-.984.668t-.82.574a2.549,2.549,0,0,0,.211.984,1.937,1.937,0,0,0,.469.645A1.676,1.676,0,0,0-21.691-1a2.635,2.635,0,0,0,.738.105,3.318,3.318,0,0,0,1.664-.5,11.412,11.412,0,0,0,1.7-1.219A18.673,18.673,0,0,0-16.043-4.1q.715-.773,1.184-1.336a.629.629,0,0,1,.34-.223.333.333,0,0,1,.281.047.336.336,0,0,1,.1.281.882.882,0,0,1-.167.456Zm-6-3.609a1.207,1.207,0,0,0-.668.281,3.482,3.482,0,0,0-.762.809,7.02,7.02,0,0,0-.7,1.289,7.548,7.548,0,0,0-.492,1.746q.281-.211.609-.434t.656-.48a6.523,6.523,0,0,0,1.407-1.36,2.369,2.369,0,0,0,.45-1.008.962.962,0,0,0-.094-.645A.459.459,0,0,0-20.3-8.484ZM-8.719,4.43A1.131,1.131,0,0,1-9.41,4.3q-.129-.129-.035-.5.023-.117.234-1.043T-8.684.5Q-8.367-.82-8-2.367t.691-2.906a1.305,1.305,0,0,1-.727-.082.367.367,0,0,1-.223-.352A.71.71,0,0,1-8-6.164a1.975,1.975,0,0,1,.715-.4A1.453,1.453,0,0,1-7-6.658q.117-.4.211-.82.094-.352.188-.75L-6.422-9l1.641-7.008a1.629,1.629,0,0,1,.434-.809,2.531,2.531,0,0,1,1.09-.457,2.871,2.871,0,0,1,.914-.129q.258.035.234.152-.07.258-.352,1.242t-.668,2.4q-.387,1.418-.832,3.117t-.867,3.363q1.406-.211,3.422-.352Q-.633-7.57.1-7.594t1.418,0q.328-1.266.645-2.531t.6-2.344q.281-1.078.5-1.91t.34-1.23a6.455,6.455,0,0,1,.27-.727,1.4,1.4,0,0,1,.3-.445,1.024,1.024,0,0,1,.41-.234,4.013,4.013,0,0,1,.539-.117q.164,0,.4-.023.188,0,.445-.012a3.168,3.168,0,0,1,.586.035q-.891,2.391-1.652,4.84T3.492-7.523q.422.047.738.07a3.113,3.113,0,0,1,.5.07,1.11,1.11,0,0,1,.715.3q.152.211-.105.609l-.281.352q-.141.188-.352.434a6.9,6.9,0,0,1-.539.551q-.188-.07-.387-.141L3.4-5.414q-.234-.07-.445-.141-.164.563-.3,1.09T2.391-3.4q-.282,1.15-.539,2.369Q1.641.023,1.418,1.3t-.34,2.52A1.425,1.425,0,0,1,.7,3.949l-.328.059-.328.047h-.3a.416.416,0,0,1-.187-.047,1.336,1.336,0,0,1-.234-.07L-.9,3.855a1.135,1.135,0,0,1-.223-.105Q-.936,2.977-.83,2.3t.15-1.2Q-.609.492-.586.023A5.508,5.508,0,0,0-.715-1.312a6.955,6.955,0,0,0-.469-1.43,6.9,6.9,0,0,0-.773-1.312A4.83,4.83,0,0,0-3-5.086,3.277,3.277,0,0,0-4.113-5.6a3.493,3.493,0,0,0-1.066-.07q-.164.7-.3,1.359t-.234,1.266q-.264,1.358-.5,2.645Q-6.4.7-6.6,1.887t-.293,2.027a5.024,5.024,0,0,1-.7.293,4.68,4.68,0,0,1-.586.152,2.222,2.222,0,0,1-.54.071ZM.563-5.977Q-.258-6.07-1-6.082t-1.3-.012a3,3,0,0,1,.832.68q.363.422.762.961A4.571,4.571,0,0,1-.094-3.375q.234.586.4,1.125.187-.984.4-1.922T1.1-5.93Q.959-5.953.83-5.965T.563-5.977Zm16.383,1.1a17.91,17.91,0,0,1-1.594,2,14.513,14.513,0,0,1-1.887,1.734A10.339,10.339,0,0,1,11.426.094,4.93,4.93,0,0,1,9.4.563,2.938,2.938,0,0,1,8.285.316,3.175,3.175,0,0,1,7.2-.445a3.712,3.712,0,0,1-.79-1.336,4.578,4.578,0,0,1-.176-1.992,6.173,6.173,0,0,1,.6-2.027,9.234,9.234,0,0,1,1.24-1.958A7.066,7.066,0,0,1,9.738-9.234,3.456,3.456,0,0,1,11.6-9.82a1.652,1.652,0,0,1,1.289.445,1.429,1.429,0,0,1,.352,1.1,3.38,3.38,0,0,1-.41,1.336,5.41,5.41,0,0,1-.809,1.1,8.207,8.207,0,0,1-1,.891q-.527.4-1,.727-.516.352-.984.668t-.82.574a2.549,2.549,0,0,0,.211.984A1.937,1.937,0,0,0,8.9-1.35,1.676,1.676,0,0,0,9.551-1a2.635,2.635,0,0,0,.738.1,3.318,3.318,0,0,0,1.664-.5,11.412,11.412,0,0,0,1.7-1.219A18.673,18.673,0,0,0,15.2-4.1q.715-.773,1.184-1.336a.629.629,0,0,1,.34-.223A.333.333,0,0,1,17-5.613a.336.336,0,0,1,.105.281.882.882,0,0,1-.16.457Zm-6-3.609a1.207,1.207,0,0,0-.668.281,3.482,3.482,0,0,0-.762.809,7.02,7.02,0,0,0-.7,1.289,7.548,7.548,0,0,0-.5,1.748q.281-.211.609-.434t.656-.48a6.523,6.523,0,0,0,1.406-1.359,2.369,2.369,0,0,0,.445-1.008.962.962,0,0,0-.094-.645.459.459,0,0,0-.4-.2Zm16.336,3.82q-.328.469-.844,1.16T25.371-2.121q-.551.691-1.078,1.266a5.334,5.334,0,0,1-.879.809,2.438,2.438,0,0,1-.539.234A2.812,2.812,0,0,1,22.254.3a2.144,2.144,0,0,1-.6-.035,1.388,1.388,0,0,1-.492-.2A1.234,1.234,0,0,1,20.813-.4a4.073,4.073,0,0,1-.223-.68,3.846,3.846,0,0,1-.082-1.055A4.894,4.894,0,0,1,19.266-.691a5.547,5.547,0,0,1-1.289.738,5.046,5.046,0,0,1-1.406.3,1.39,1.39,0,0,1-.7-.223,1.75,1.75,0,0,1-.633-.7,3.268,3.268,0,0,1-.328-1.242A5.62,5.62,0,0,1,15.1-3.634a8.689,8.689,0,0,1,1.043-2.6,10.406,10.406,0,0,1,1.559-2,6.936,6.936,0,0,1,1.664-1.254,2.634,2.634,0,0,1,1.359-.375,2.846,2.846,0,0,1,1.031.375,1.122,1.122,0,0,1,.434.691,1.683,1.683,0,0,1-.388,1.2,5.423,5.423,0,0,1,.551-.094q.223-.023.34-.023a.488.488,0,0,1,.188.023.534.534,0,0,1,.023.2,3.793,3.793,0,0,1-.07.551q-.07.4-.211,1.078T22.242-4.1q-.047.211-.082.387l-.07.352-.082.41-.117.586a2.9,2.9,0,0,0-.012.457,1.694,1.694,0,0,0,.082.457.74.74,0,0,0,.223.34.653.653,0,0,0,.434.129,1.113,1.113,0,0,0,.609-.293,6.835,6.835,0,0,0,.8-.75q.422-.457.879-1.008T25.758-4.1q.4-.516.715-.914T26.93-5.6a.7.7,0,0,1,.375-.246.253.253,0,0,1,.281.105.557.557,0,0,1,.035.422,1.758,1.758,0,0,1-.34.655ZM20.414-3.633q.117-.469.281-1.1t.281-1.219q.117-.586.176-.973t-.035-.363a2.167,2.167,0,0,0-.258.07,1.257,1.257,0,0,1-.3.07,3.163,3.163,0,0,0-.375.07A2.154,2.154,0,0,0,20.4-7.7a1.333,1.333,0,0,0,.012-.387.557.557,0,0,0-.094-.258q-.258-.211-.9.34A7.977,7.977,0,0,0,17.93-5.977a6.233,6.233,0,0,0-.562,1.3,8.251,8.251,0,0,0-.293,1.3,4.588,4.588,0,0,0-.035,1.066,1.04,1.04,0,0,0,.188.6.766.766,0,0,0,.586.246,1.572,1.572,0,0,0,.668-.187,3.838,3.838,0,0,0,.68-.457A5.451,5.451,0,0,0,19.77-2.7a5.775,5.775,0,0,0,.445-.562,1.255,1.255,0,0,0,.2-.371Zm12.164-.539q-.609.891-1.254,1.734T30.082-.926A9.96,9.96,0,0,1,28.98.152a1.468,1.468,0,0,1-.809.41,1.371,1.371,0,0,1-1.184-.691,5.37,5.37,0,0,1-.7-1.711,11.823,11.823,0,0,1-.3-2.18A16.468,16.468,0,0,1,26-6.094a14.4,14.4,0,0,1,.2-1.465,3,3,0,0,1,.293-.855,1.165,1.165,0,0,1,.422-.445,2.462,2.462,0,0,1,.621-.234,2.3,2.3,0,0,1,.375-.07,1.26,1.26,0,0,1,.387.012A.442.442,0,0,1,28.57-9a.376.376,0,0,1,.023.352q-.047.211-.152.621t-.223.926Q28.1-6.586,28-6.023t-.152,1.078a8.611,8.611,0,0,0,0,1.559,6.036,6.036,0,0,0,.211,1.125,2.538,2.538,0,0,0,.3.691q.164.234.258.234.117,0,.434-.316a10.012,10.012,0,0,0,.727-.832q.41-.516.867-1.2t.855-1.4a2.242,2.242,0,0,1-.117-.891,4.592,4.592,0,0,1,.352-1.441,4.669,4.669,0,0,1,.645-1.09,3.214,3.214,0,0,1,.75-.691,1.328,1.328,0,0,1,.691-.246q.609,0,.762.316a1.1,1.1,0,0,1,.1.645,4.63,4.63,0,0,1-.434,1.348,17.88,17.88,0,0,1-1,1.863q.117.047.258.094a1.039,1.039,0,0,0,.328.047,5.154,5.154,0,0,0,1.441-.187,5.82,5.82,0,0,0,1.125-.445,4.54,4.54,0,0,0,.82-.551q.34-.293.551-.48a.4.4,0,0,1,.281-.141.38.38,0,0,1,.234.07.247.247,0,0,1,.094.211.486.486,0,0,1-.141.3A6.546,6.546,0,0,1,36.2-4.687a6,6,0,0,1-2.824.633,3.286,3.286,0,0,1-.352-.023A2.525,2.525,0,0,1,32.578-4.172Zm14.016-.7a17.91,17.91,0,0,1-1.594,2,14.513,14.513,0,0,1-1.887,1.734A10.339,10.339,0,0,1,41.074.094a4.93,4.93,0,0,1-2.027.469A2.938,2.938,0,0,1,37.934.316a3.175,3.175,0,0,1-1.09-.762,3.712,3.712,0,0,1-.785-1.336,4.578,4.578,0,0,1-.176-1.992,6.173,6.173,0,0,1,.6-2.027,9.234,9.234,0,0,1,1.242-1.957,7.066,7.066,0,0,1,1.664-1.477A3.456,3.456,0,0,1,41.25-9.82a1.652,1.652,0,0,1,1.289.445,1.429,1.429,0,0,1,.352,1.1,3.38,3.38,0,0,1-.41,1.336,5.41,5.41,0,0,1-.809,1.1,8.207,8.207,0,0,1-1,.891q-.527.4-1,.727-.516.352-.984.668t-.82.574a2.549,2.549,0,0,0,.211.984,1.937,1.937,0,0,0,.469.645A1.676,1.676,0,0,0,39.2-1a2.635,2.635,0,0,0,.738.1A3.318,3.318,0,0,0,41.6-1.4a11.412,11.412,0,0,0,1.7-1.219A18.673,18.673,0,0,0,44.848-4.1q.715-.773,1.184-1.336a.629.629,0,0,1,.34-.223.333.333,0,0,1,.281.047.336.336,0,0,1,.105.281.882.882,0,0,1-.164.456Zm-6-3.609a1.207,1.207,0,0,0-.668.281,3.482,3.482,0,0,0-.762.809,7.02,7.02,0,0,0-.7,1.289,7.548,7.548,0,0,0-.492,1.746q.281-.211.609-.434t.656-.48a6.523,6.523,0,0,0,1.406-1.359,2.369,2.369,0,0,0,.445-1.008.962.962,0,0,0-.094-.645.459.459,0,0,0-.4-.2ZM51.867.586a2,2,0,0,1-.926-.2,1.71,1.71,0,0,1-.621-.527,1.78,1.78,0,0,1-.3-.762,2.351,2.351,0,0,1,.047-.926q.07-.328.234-.879t.34-1.2q.176-.645.328-1.289a8.361,8.361,0,0,0,.2-1.172,2.5,2.5,0,0,0-.047-.867.4.4,0,0,0-.4-.34,1.472,1.472,0,0,0-.773.246,4.3,4.3,0,0,0-.809.668,9.736,9.736,0,0,0-.82.973q-.41.551-.809,1.137-.211.8-.352,1.395T46.91-2.074q-.1.48-.2.844t-.164.691a.91.91,0,0,1-.422.457,3.7,3.7,0,0,1-.75.363,2.128,2.128,0,0,1-.691.141q-.293,0-.246-.211.023-.141.152-.633l.3-1.16Q45.07-2.25,45.258-3t.352-1.43q.117-.539.258-1.2.117-.562.293-1.312t.41-1.641a1.5,1.5,0,0,1,.34-.223,2.01,2.01,0,0,1,.363-.129,1.649,1.649,0,0,1,.4-.094A3.021,3.021,0,0,1,48.047-9a1.947,1.947,0,0,1,.34.082.968.968,0,0,1,.316.176q-.07.164-.164.457t-.187.621q-.094.375-.234.773a10.719,10.719,0,0,1,.691-.855,6.166,6.166,0,0,1,.844-.785,4.548,4.548,0,0,1,.973-.574,2.636,2.636,0,0,1,1.055-.223,1.314,1.314,0,0,1,.8.258,1.709,1.709,0,0,1,.551.715,3.161,3.161,0,0,1,.234,1.09,4.253,4.253,0,0,1-.176,1.383l-.258,1.031q-.117.492-.293,1.16T52.1-2.227a2.545,2.545,0,0,0-.1.891q.035.375.457.375a1.9,1.9,0,0,0,1.066-.516,11.2,11.2,0,0,0,1.3-1.242q.656-.727,1.242-1.488t.891-1.23a1.189,1.189,0,0,1,.4-.4.289.289,0,0,1,.293-.023q.1.07.1.316a1.47,1.47,0,0,1-.187.621q-.164.328-.5.867a12.981,12.981,0,0,1-.817,1.15q-.469.609-1.008,1.23A10.921,10.921,0,0,1,54.117-.551a6.9,6.9,0,0,1-1.16.82,2.267,2.267,0,0,1-1.09.317Z" transform="translate(428.109 41.959)" fill="#fff"/>
    <path id="cloud" d="M196.683,22.777A7.885,7.885,0,0,1,192.5,24a7.978,7.978,0,0,1-4.633-1.521A11.708,11.708,0,0,1,182,24c-5.522,0-10-3.582-10-8s4.477-8,10-8a12.554,12.554,0,0,1,1.515.091C184.8,3.383,188.337,0,192.5,0c4.14,0,7.661,3.345,8.962,8.011Q201.729,8,202,8c5.523,0,10,3.582,10,8s-4.478,8-10,8a11.846,11.846,0,0,1-5.317-1.223Z" transform="translate(152 23)" fill="#fff"/>
  </g>
</svg>
