<svg id="blue-heaven-logo" xmlns="http://www.w3.org/2000/svg" xmlns:xlink="http://www.w3.org/1999/xlink" width="521.361" height="77.357" viewBox="0 0 521.361 77.357">
  <defs>
    <linearGradient id="linear-gradient" x1="0.5" x2="0.5" y2="1" gradientUnits="objectBoundingBox">
      <stop offset="0" stop-color="#44a9fc"/>
      <stop offset="1" stop-color="#2189de"/>
    </linearGradient>
  </defs>
  <path id="Blue_Heaven" data-name="Blue Heaven" d="M-15.315,32.826a19.788,19.788,0,0,1-3.022,9.065,23.859,23.859,0,0,1-6.535,6.761,30.173,30.173,0,0,1-8.952,4.193A36.953,36.953,0,0,1-44.1,54.281a23.872,23.872,0,0,1-3.664-.264,27,27,0,0,1-3.06-.642q-1.36-.378-2.3-.718a8.371,8.371,0,0,1-1.322-.567,3.35,3.35,0,0,1-1.1-.944,3.1,3.1,0,0,1-.491-1.624,8.118,8.118,0,0,1-.076-.944,3.664,3.664,0,0,1,.076-.718q.076-.378.264-1.02t.491-1.775q.151-.68,1.171-4.268t2.455-8.763q1.435-5.175,3.135-11.218T-45.231,9.1q1.586-5.666,2.871-10.236t1.889-6.761q-1.058.755-2.077,1.586t-2.077,1.813a2.226,2.226,0,0,1-2.229.718A2.476,2.476,0,0,1-48.4-5.626a15.027,15.027,0,0,1-.227-1.586,6.511,6.511,0,0,1,.038-1.549,4.839,4.839,0,0,1,.567-1.7,43.585,43.585,0,0,1,4.873-2.569q2.38-1.058,4.57-1.889a6.432,6.432,0,0,1,1.02-1.964,2.9,2.9,0,0,1,1.171-.907,2.744,2.744,0,0,1,1.284-.151q.68.076,1.435.227a3.842,3.842,0,0,1,2.191,1.058q1.058-.151,2.04-.227t2.04-.076a23.184,23.184,0,0,1,7.63,1.133,14.962,14.962,0,0,1,5.326,3.06A11.1,11.1,0,0,1-11.462-8.27a13.073,13.073,0,0,1,.68,5.439A18.016,18.016,0,0,1-12.1,2.344a27.445,27.445,0,0,1-2.908,5.288,38.864,38.864,0,0,1-4.231,5.062,37.286,37.286,0,0,1-5.364,4.495,20.142,20.142,0,0,1,4.155,3.173A18.6,18.6,0,0,1-17.43,24.29,16.44,16.44,0,0,1-15.693,28.6,13.664,13.664,0,0,1-15.315,32.826ZM-40.32,14.318q-.151.755-.34,1.511t-.415,1.586a8.2,8.2,0,0,1,3.06-1.813,11.427,11.427,0,0,1,4.117-.831,17.792,17.792,0,0,1,2.04.113q.982.113,1.889.264a20.77,20.77,0,0,0,4.079-3.513,28.847,28.847,0,0,0,3.437-4.608A29.628,29.628,0,0,0-20.037,2a19.815,19.815,0,0,0,1.171-4.759q.453-5.213-1.775-7.743a7.96,7.96,0,0,0-6.308-2.531,17.894,17.894,0,0,0-5.666.982q-.6,1.964-1.511,4.873T-36.052-.791q-1.02,3.475-2.153,7.328T-40.32,14.318ZM-41.6,19.3q-1.058,4.079-2.115,8.839-.982,4.079-2.115,9.481l-2.417,11.521a2.676,2.676,0,0,0,1.209.529l1.511.3a10.152,10.152,0,0,0,1.813.151,18.61,18.61,0,0,0,6.912-1.4,22.353,22.353,0,0,0,6.459-3.966A22.459,22.459,0,0,0-25.4,38.53a20.428,20.428,0,0,0,2.38-8.2,11.384,11.384,0,0,0-.264-3.664,10.977,10.977,0,0,0-1.209-2.946,12.085,12.085,0,0,0-1.813-2.342,14.133,14.133,0,0,0-2.153-1.775,41.762,41.762,0,0,1-7.63,3.173,4.457,4.457,0,0,1-2.342.113,4.3,4.3,0,0,1-1.662-.831,4.093,4.093,0,0,1-1.058-1.322A4.289,4.289,0,0,1-41.6,19.3ZM-9.876,38.719Q-6.552,24.743-4.55,16.282T-1.49,3.364Q-.282-1.925.172-3.964.4-5.4.549-6.759A20.091,20.091,0,0,0,.7-9.252a11.2,11.2,0,0,0-.227-2.342A5.748,5.748,0,0,1,1.8-12.2q.718-.227,1.4-.378.831-.227,1.662-.378a8.512,8.512,0,0,1,1.511-.151,5.4,5.4,0,0,1,1.133.113.856.856,0,0,1,.68.491,1.846,1.846,0,0,1,.416,1.511q-.038,1.133-.189,2.342-.3,1.435-.68,3.1Q6.82-2.3,5.233,3.817q-1.36,5.213-3.664,14.2T-4.21,40.683a2.059,2.059,0,0,1-.907.529,3.59,3.59,0,0,1-.982.151,9.164,9.164,0,0,1-1.133-.076,4.782,4.782,0,0,1-1.058-.453,5.109,5.109,0,0,1-.907-.793A3.126,3.126,0,0,1-9.876,38.719Zm27.423,2.417a10.483,10.483,0,0,1-4.684-.907,7.8,7.8,0,0,1-4.268-5.1A11.009,11.009,0,0,1,8.179,32.3a32.554,32.554,0,0,1,.378-4.8q.378-2.531.907-4.684t.944-3.664q.416-1.511.567-1.889a14.432,14.432,0,0,1,1.775-3.815,5.529,5.529,0,0,1,3.06-2.229q.755-.151,1.586-.3a12.65,12.65,0,0,1,1.4-.076,3.737,3.737,0,0,1,1.322.227q-2.04,5.213-3.211,8.688t-1.775,5.666a25.867,25.867,0,0,0-.831,4,8.681,8.681,0,0,0,.6,5.137q.982,1.738,4,1.738a5.924,5.924,0,0,0,3.777-1.473,16.1,16.1,0,0,0,3.324-3.815,13.5,13.5,0,0,1-.227-2.493A26.554,26.554,0,0,1,26.2,23.8q.415-2.3.982-4.306A35.045,35.045,0,0,1,28.388,15.9q.642-1.586,1.1-2.493a5.3,5.3,0,0,1,1.511-2.229,4.844,4.844,0,0,1,2.191-.491,4.871,4.871,0,0,1,1.02-.038,4.783,4.783,0,0,1,.718.113q.907.227.907.907,0,1.209-.151,3.626a22.68,22.68,0,0,1-.907,4.986q-.529,2.115-1.02,3.588t-.944,2.493a9.854,9.854,0,0,1-.907,1.662q-.453.642-.831,1.171.151,2.266.378,3.626a8.211,8.211,0,0,0,.567,2.077,2.061,2.061,0,0,0,.831.982,2.273,2.273,0,0,0,1.1.264,4.549,4.549,0,0,0,2.493-1.02,23.685,23.685,0,0,0,2.984-2.569q1.549-1.549,3.1-3.4t2.833-3.513q1.284-1.662,2.191-2.908t1.133-1.549a2.249,2.249,0,0,1,1.02-.831.784.784,0,0,1,.793.113,1.157,1.157,0,0,1,.34.831,2.28,2.28,0,0,1-.34,1.246,58.743,58.743,0,0,1-3.739,6.081,53.3,53.3,0,0,1-4.759,5.93,33.153,33.153,0,0,1-5.1,4.533,8.512,8.512,0,0,1-4.835,1.813,3.965,3.965,0,0,1-3.211-1.4,11.83,11.83,0,0,1-2-4.042,13.279,13.279,0,0,1-4.079,4.193A9.59,9.59,0,0,1,17.547,41.136ZM78.663,24.214a57.729,57.729,0,0,1-5.137,6.459,46.78,46.78,0,0,1-6.081,5.59,33.326,33.326,0,0,1-6.572,3.966,15.889,15.889,0,0,1-6.535,1.511,9.471,9.471,0,0,1-3.588-.793,10.235,10.235,0,0,1-3.513-2.455,11.965,11.965,0,0,1-2.531-4.306,14.756,14.756,0,0,1-.567-6.421,19.9,19.9,0,0,1,1.926-6.535,29.764,29.764,0,0,1,4-6.308,22.776,22.776,0,0,1,5.364-4.759,11.139,11.139,0,0,1,6.006-1.889,5.324,5.324,0,0,1,4.155,1.435,4.606,4.606,0,0,1,1.133,3.551A10.893,10.893,0,0,1,65.4,17.566,17.438,17.438,0,0,1,62.8,21.117a26.453,26.453,0,0,1-3.211,2.871q-1.7,1.284-3.211,2.342-1.662,1.133-3.173,2.153T50.56,30.333a8.215,8.215,0,0,0,.68,3.173,6.243,6.243,0,0,0,1.511,2.077,5.4,5.4,0,0,0,2.077,1.133,8.494,8.494,0,0,0,2.38.34,10.7,10.7,0,0,0,5.364-1.624A36.781,36.781,0,0,0,68.049,31.5a60.188,60.188,0,0,0,4.986-4.8q2.3-2.493,3.815-4.306a2.026,2.026,0,0,1,1.1-.718.944.944,0,0,1,1.246,1.058A2.842,2.842,0,0,1,78.663,24.214ZM59.323,12.58a3.891,3.891,0,0,0-2.153.907,11.224,11.224,0,0,0-2.455,2.606,22.628,22.628,0,0,0-2.266,4.155,24.33,24.33,0,0,0-1.586,5.628q.907-.68,1.964-1.4t2.115-1.549a21.024,21.024,0,0,0,4.533-4.382A7.636,7.636,0,0,0,60.91,15.3a3.1,3.1,0,0,0-.3-2.077A1.479,1.479,0,0,0,59.323,12.58ZM96.642,54.205a3.647,3.647,0,0,1-2.229-.416Q94,53.374,94.3,52.166q.076-.378.755-3.362t1.7-7.252q1.02-4.268,2.191-9.254t2.229-9.368a4.208,4.208,0,0,1-2.342-.264,1.182,1.182,0,0,1-.718-1.133,2.287,2.287,0,0,1,.831-1.473,6.365,6.365,0,0,1,2.3-1.284,4.683,4.683,0,0,1,.907-.3q.378-1.284.68-2.644.3-1.133.6-2.417t.6-2.493l5.288-22.588a5.25,5.25,0,0,1,1.4-2.606,8.158,8.158,0,0,1,3.513-1.473,9.253,9.253,0,0,1,2.946-.415q.831.113.755.491-.227.831-1.133,4T114.66-3.927q-1.246,4.57-2.682,10.047t-2.8,10.841q4.533-.68,11.03-1.133,2.493-.3,4.873-.378t4.57,0q1.058-4.079,2.077-8.159t1.926-7.554q.907-3.475,1.624-6.157t1.1-3.966a20.807,20.807,0,0,1,.869-2.342,4.5,4.5,0,0,1,.982-1.435,3.3,3.3,0,0,1,1.322-.755,12.934,12.934,0,0,1,1.738-.378q.529,0,1.284-.076.6,0,1.435-.038a10.213,10.213,0,0,1,1.889.113Q143.027-7.59,140.572.3T136,15.677q1.36.151,2.38.227a10.034,10.034,0,0,1,1.624.227,3.576,3.576,0,0,1,2.3.982q.491.68-.34,1.964l-.907,1.133q-.453.6-1.133,1.4a22.258,22.258,0,0,1-1.738,1.775q-.6-.227-1.247-.453t-1.247-.453q-.755-.227-1.435-.453-.529,1.813-.982,3.513t-.831,3.437q-.907,3.7-1.738,7.63-.68,3.4-1.4,7.517t-1.1,8.121a4.594,4.594,0,0,1-1.209.415q-.6.113-1.058.189L124.9,53h-.982a1.341,1.341,0,0,1-.6-.151,4.307,4.307,0,0,1-.755-.227q-.378-.151-.718-.264a3.657,3.657,0,0,1-.718-.34q.6-2.493.944-4.684t.491-3.853q.227-1.964.3-3.475a17.756,17.756,0,0,0-.416-4.306,22.67,22.67,0,0,0-4-8.839,15.568,15.568,0,0,0-3.362-3.324,10.563,10.563,0,0,0-3.588-1.662,11.258,11.258,0,0,0-3.437-.227q-.529,2.266-.982,4.382t-.755,4.079q-.831,4.382-1.586,8.537-.6,3.551-1.247,7.366t-.944,6.535a16.192,16.192,0,0,1-2.266.944,15.084,15.084,0,0,1-1.889.491A7.163,7.163,0,0,1,96.642,54.205Zm29.916-33.542q-2.644-.3-5.024-.34t-4.193-.038a9.677,9.677,0,0,1,2.682,2.191q1.171,1.36,2.455,3.1a14.734,14.734,0,0,1,1.964,3.475q.755,1.889,1.284,3.626.6-3.173,1.284-6.195t1.284-5.666q-.453-.076-.869-.113T126.558,20.663Zm52.806,3.551a57.729,57.729,0,0,1-5.137,6.459,46.781,46.781,0,0,1-6.081,5.59,33.325,33.325,0,0,1-6.572,3.966,15.889,15.889,0,0,1-6.535,1.511,9.47,9.47,0,0,1-3.588-.793,10.234,10.234,0,0,1-3.513-2.455,11.965,11.965,0,0,1-2.531-4.306,14.756,14.756,0,0,1-.567-6.421,19.9,19.9,0,0,1,1.926-6.535,29.764,29.764,0,0,1,4-6.308,22.776,22.776,0,0,1,5.364-4.759,11.139,11.139,0,0,1,6.006-1.889,5.324,5.324,0,0,1,4.155,1.435,4.606,4.606,0,0,1,1.133,3.551,10.893,10.893,0,0,1-1.322,4.306,17.437,17.437,0,0,1-2.606,3.551,26.456,26.456,0,0,1-3.211,2.871q-1.7,1.284-3.211,2.342-1.662,1.133-3.173,2.153t-2.644,1.851a8.216,8.216,0,0,0,.68,3.173,6.244,6.244,0,0,0,1.511,2.077,5.4,5.4,0,0,0,2.077,1.133,8.493,8.493,0,0,0,2.38.34,10.7,10.7,0,0,0,5.364-1.624A36.781,36.781,0,0,0,168.75,31.5a60.185,60.185,0,0,0,4.986-4.8q2.3-2.493,3.815-4.306a2.026,2.026,0,0,1,1.1-.718.944.944,0,0,1,1.246,1.058A2.842,2.842,0,0,1,179.364,24.214ZM160.025,12.58a3.891,3.891,0,0,0-2.153.907,11.225,11.225,0,0,0-2.455,2.606,22.63,22.63,0,0,0-2.266,4.155,24.331,24.331,0,0,0-1.586,5.628q.907-.68,1.964-1.4t2.115-1.549a21.024,21.024,0,0,0,4.533-4.382,7.637,7.637,0,0,0,1.435-3.248,3.1,3.1,0,0,0-.3-2.077A1.479,1.479,0,0,0,160.025,12.58Zm52.655,12.314q-1.058,1.511-2.72,3.739t-3.437,4.457q-1.775,2.229-3.475,4.079a17.192,17.192,0,0,1-2.833,2.606,7.857,7.857,0,0,1-1.738.755,9.064,9.064,0,0,1-2,.378,6.91,6.91,0,0,1-1.926-.113,4.473,4.473,0,0,1-1.586-.642,3.977,3.977,0,0,1-1.133-1.511,13.129,13.129,0,0,1-.718-2.191,12.4,12.4,0,0,1-.264-3.4,15.775,15.775,0,0,1-4,4.646,17.88,17.88,0,0,1-4.155,2.38,16.264,16.264,0,0,1-4.533.982,4.48,4.48,0,0,1-2.266-.718,5.641,5.641,0,0,1-2.04-2.266,10.534,10.534,0,0,1-1.058-4,18.114,18.114,0,0,1,.6-5.855,28.008,28.008,0,0,1,3.362-8.385,33.54,33.54,0,0,1,5.024-6.459,22.357,22.357,0,0,1,5.364-4.042,8.49,8.49,0,0,1,4.382-1.209,9.173,9.173,0,0,1,3.324,1.209,3.615,3.615,0,0,1,1.4,2.229q.34,1.473-1.246,3.891a17.477,17.477,0,0,1,1.775-.3q.718-.076,1.1-.076a1.572,1.572,0,0,1,.6.076,1.721,1.721,0,0,1,.076.642,12.224,12.224,0,0,1-.227,1.775q-.227,1.284-.68,3.475t-1.209,5.666q-.151.68-.264,1.246l-.227,1.133-.264,1.322L195.3,32.3a9.343,9.343,0,0,0-.038,1.473,5.46,5.46,0,0,0,.264,1.473,2.386,2.386,0,0,0,.718,1.1,2.1,2.1,0,0,0,1.4.416,3.587,3.587,0,0,0,1.964-.944,22.031,22.031,0,0,0,2.569-2.417q1.36-1.473,2.833-3.248t2.757-3.437q1.284-1.662,2.3-2.946t1.473-1.889a2.242,2.242,0,0,1,1.209-.793.815.815,0,0,1,.907.34,1.8,1.8,0,0,1,.113,1.36A5.668,5.668,0,0,1,212.679,24.894Zm-22.135,3.324q.378-1.511.907-3.551t.907-3.928q.378-1.889.567-3.135t-.113-1.171a6.986,6.986,0,0,0-.831.227,4.052,4.052,0,0,1-.982.227,10.194,10.194,0,0,0-1.209.227,6.944,6.944,0,0,0,.718-2,4.294,4.294,0,0,0,.038-1.246,1.794,1.794,0,0,0-.3-.831q-.831-.68-2.908,1.1a25.711,25.711,0,0,0-4.8,6.535,20.092,20.092,0,0,0-1.813,4.193,26.6,26.6,0,0,0-.944,4.193,14.789,14.789,0,0,0-.113,3.437,3.351,3.351,0,0,0,.6,1.926,2.47,2.47,0,0,0,1.889.793,5.066,5.066,0,0,0,2.153-.6,12.373,12.373,0,0,0,2.191-1.473,17.564,17.564,0,0,0,1.964-1.889,18.613,18.613,0,0,0,1.435-1.813A4.044,4.044,0,0,0,190.545,28.218Zm39.208-1.738q-1.964,2.871-4.042,5.59t-4,4.873a32.1,32.1,0,0,1-3.551,3.475,4.733,4.733,0,0,1-2.606,1.322,4.42,4.42,0,0,1-3.815-2.229A17.309,17.309,0,0,1,209.469,34a38.1,38.1,0,0,1-.982-7.026,53.08,53.08,0,0,1,.038-6.686,46.423,46.423,0,0,1,.68-4.722,9.669,9.669,0,0,1,.944-2.757,3.755,3.755,0,0,1,1.36-1.435,7.934,7.934,0,0,1,2-.755,7.4,7.4,0,0,1,1.209-.227,4.062,4.062,0,0,1,1.246.038,1.424,1.424,0,0,1,.869.491,1.212,1.212,0,0,1,.076,1.133q-.151.68-.491,2t-.718,2.984q-.378,1.662-.718,3.475t-.491,3.475a27.752,27.752,0,0,0,0,5.024,19.456,19.456,0,0,0,.68,3.626,8.178,8.178,0,0,0,.982,2.229q.529.755.831.755.378,0,1.4-1.02a32.253,32.253,0,0,0,2.342-2.682q1.322-1.662,2.8-3.853t2.757-4.533a7.227,7.227,0,0,1-.378-2.871,14.8,14.8,0,0,1,1.133-4.646A15.049,15.049,0,0,1,229.11,12.5a10.359,10.359,0,0,1,2.417-2.229,4.282,4.282,0,0,1,2.229-.793q1.964,0,2.455,1.02a3.542,3.542,0,0,1,.34,2.077,14.924,14.924,0,0,1-1.4,4.344,57.634,57.634,0,0,1-3.211,6.006q.378.151.831.3a3.348,3.348,0,0,0,1.058.151,16.614,16.614,0,0,0,4.646-.6,18.76,18.76,0,0,0,3.626-1.435,14.632,14.632,0,0,0,2.644-1.775q1.1-.944,1.775-1.549a1.306,1.306,0,0,1,.906-.453,1.224,1.224,0,0,1,.755.227.8.8,0,0,1,.3.68,1.567,1.567,0,0,1-.453.982,21.1,21.1,0,0,1-6.61,5.364,19.337,19.337,0,0,1-9.1,2.04,10.59,10.59,0,0,1-1.133-.076A8.138,8.138,0,0,1,229.753,26.48Zm45.176-2.266a57.725,57.725,0,0,1-5.137,6.459,46.789,46.789,0,0,1-6.081,5.59,33.326,33.326,0,0,1-6.572,3.966A15.889,15.889,0,0,1,250.6,41.74a9.47,9.47,0,0,1-3.588-.793,10.235,10.235,0,0,1-3.513-2.455,11.965,11.965,0,0,1-2.531-4.306,14.756,14.756,0,0,1-.567-6.421,19.9,19.9,0,0,1,1.926-6.535,29.764,29.764,0,0,1,4-6.308,22.775,22.775,0,0,1,5.364-4.759A11.139,11.139,0,0,1,257.7,8.274a5.324,5.324,0,0,1,4.155,1.435,4.606,4.606,0,0,1,1.133,3.551,10.894,10.894,0,0,1-1.322,4.306,17.436,17.436,0,0,1-2.606,3.551,26.455,26.455,0,0,1-3.211,2.871q-1.7,1.284-3.211,2.342-1.662,1.133-3.173,2.153t-2.644,1.851a8.216,8.216,0,0,0,.68,3.173,6.244,6.244,0,0,0,1.511,2.077,5.4,5.4,0,0,0,2.078,1.133,8.493,8.493,0,0,0,2.38.34,10.7,10.7,0,0,0,5.364-1.624,36.778,36.778,0,0,0,5.477-3.928,60.176,60.176,0,0,0,4.986-4.8q2.3-2.493,3.815-4.306a2.026,2.026,0,0,1,1.1-.718.944.944,0,0,1,1.246,1.058A2.842,2.842,0,0,1,274.928,24.214ZM255.589,12.58a3.891,3.891,0,0,0-2.153.907,11.224,11.224,0,0,0-2.455,2.606,22.631,22.631,0,0,0-2.266,4.155,24.333,24.333,0,0,0-1.586,5.628q.907-.68,1.964-1.4t2.115-1.549a21.023,21.023,0,0,0,4.533-4.382,7.636,7.636,0,0,0,1.435-3.248,3.1,3.1,0,0,0-.3-2.077A1.479,1.479,0,0,0,255.589,12.58Zm36.337,29.236a6.444,6.444,0,0,1-2.984-.642,5.511,5.511,0,0,1-2-1.7,5.739,5.739,0,0,1-.982-2.455,7.58,7.58,0,0,1,.151-2.984q.227-1.058.755-2.833t1.1-3.853q.567-2.077,1.058-4.155a26.958,26.958,0,0,0,.642-3.777,8.052,8.052,0,0,0-.151-2.8,1.274,1.274,0,0,0-1.284-1.1,4.745,4.745,0,0,0-2.493.793,13.851,13.851,0,0,0-2.606,2.153,31.374,31.374,0,0,0-2.644,3.135q-1.322,1.775-2.606,3.664-.68,2.569-1.133,4.495t-.793,3.475q-.34,1.549-.642,2.72t-.529,2.229a2.933,2.933,0,0,1-1.36,1.473A11.91,11.91,0,0,1,271,40.834a6.858,6.858,0,0,1-2.229.453q-.944,0-.793-.68.075-.453.491-2.04t.982-3.739q.567-2.153,1.171-4.57t1.133-4.608q.378-1.738.831-3.853.378-1.813.944-4.231t1.322-5.288a4.818,4.818,0,0,1,1.1-.718,6.478,6.478,0,0,1,1.171-.415,5.314,5.314,0,0,1,1.284-.3,9.735,9.735,0,0,1,1.209.076,6.275,6.275,0,0,1,1.1.264,3.12,3.12,0,0,1,1.02.567q-.227.529-.529,1.473t-.6,2q-.3,1.209-.755,2.493a34.543,34.543,0,0,1,2.229-2.757,19.877,19.877,0,0,1,2.72-2.531,14.66,14.66,0,0,1,3.135-1.851,8.5,8.5,0,0,1,3.4-.718,4.234,4.234,0,0,1,2.569.831,5.509,5.509,0,0,1,1.775,2.3,10.189,10.189,0,0,1,.755,3.513,13.708,13.708,0,0,1-.567,4.457l-.831,3.324q-.378,1.586-.944,3.739t-1.4,4.722a8.2,8.2,0,0,0-.34,2.871q.113,1.209,1.473,1.209a6.116,6.116,0,0,0,3.437-1.662,36.083,36.083,0,0,0,4.193-4q2.115-2.342,4-4.8t2.871-3.966a3.832,3.832,0,0,1,1.284-1.284.93.93,0,0,1,.944-.076q.34.227.34,1.02a4.739,4.739,0,0,1-.6,2q-.529,1.058-1.624,2.8t-2.606,3.7q-1.511,1.964-3.249,3.966a35.2,35.2,0,0,1-3.626,3.626,22.253,22.253,0,0,1-3.739,2.644A7.306,7.306,0,0,1,291.926,41.816Z" transform="translate(210.473 20.897)" fill="url(#linear-gradient)"/>
  <path id="cloud" d="M79.56,73.415a25.42,25.42,0,0,1-13.484,3.942,25.714,25.714,0,0,1-14.932-4.9,37.74,37.74,0,0,1-18.912,4.9C14.431,77.358,0,65.813,0,51.572S14.431,25.786,32.232,25.786a40.48,40.48,0,0,1,4.885.294C41.254,10.9,52.657,0,66.076,0,79.42,0,90.77,10.781,94.966,25.823q.861-.036,1.732-.037c17.8,0,32.232,11.544,32.232,25.786S114.5,77.358,96.7,77.358A38.191,38.191,0,0,1,79.56,73.415Z" transform="translate(0 0)" fill="url(#linear-gradient)"/>
</svg>
