<svg xmlns="http://www.w3.org/2000/svg" width="16" height="16" viewBox="0 0 16 16">
  <path id="instagram" d="M65.427,45.707a3.307,3.307,0,0,1-3.3,3.311h-6.38a3.308,3.308,0,0,1-3.31-3.3V39.337a3.307,3.307,0,0,1,3.3-3.311h6.377a3.307,3.307,0,0,1,3.31,3.3V45.7Zm1.5-6.42a4.815,4.815,0,0,0-4.815-4.815h-6.37a4.816,4.816,0,0,0-4.815,4.814h0v6.37a4.816,4.816,0,0,0,4.814,4.815h6.371a4.815,4.815,0,0,0,4.815-4.815Zm-7.975,5.868A2.558,2.558,0,1,1,61.51,42.6a2.636,2.636,0,0,1-2.558,2.555Zm0-6.52A3.962,3.962,0,1,0,62.914,42.6h0a4,4,0,0,0-3.962-3.965Zm4.163-1.2a.953.953,0,1,0,.953.953h0a.922.922,0,0,0-.886-.957h-.067Z" transform="translate(-50.927 -34.472)" fill="#fff"/>
</svg>
