<svg xmlns="http://www.w3.org/2000/svg" width="32" height="32" viewBox="0 0 32 32">
  <g id="missao" transform="translate(-511 -1151)">
    <rect id="transparent-bg" width="32" height="32" transform="translate(511 1151)" fill="none"/>
    <path id="missao-2" data-name="missao" d="M-2473-1091.81a12.988,12.988,0,0,1,12.988-12.988,12.984,12.984,0,0,1,11.375,6.717,2.766,2.766,0,0,0-.571.567l-2.251,3a8.986,8.986,0,0,0-8.554-6.268,8.982,8.982,0,0,0-8.971,8.971,8.982,8.982,0,0,0,8.971,8.971,8.986,8.986,0,0,0,8.554-6.268l2.251,3a2.761,2.761,0,0,0,.571.567,12.984,12.984,0,0,1-11.375,6.717A12.988,12.988,0,0,1-2473-1091.81Zm5.892,0a7.1,7.1,0,0,1,7.1-7.1,7.1,7.1,0,0,1,7.034,6.158h-2.17a4.962,4.962,0,0,0-4.864-4.017,4.96,4.96,0,0,0-4.954,4.954,4.961,4.961,0,0,0,4.954,4.954,4.962,4.962,0,0,0,4.864-4.017h2.17a7.106,7.106,0,0,1-7.034,6.158,7.1,7.1,0,0,1-7.1-7.09Zm20.15,4.954a.94.94,0,0,1-.751-.375l-3.012-4.017a.937.937,0,0,1,0-1.125l3.012-4.017a.939.939,0,0,1,.751-.375h5.02a.938.938,0,0,1,.839.518.939.939,0,0,1-.088.982l-2.591,3.454,2.591,3.454a.941.941,0,0,1,.088.982.939.939,0,0,1-.839.518Zm-16.134-4.954a3.082,3.082,0,0,1,3.08-3.079,3.084,3.084,0,0,1,2.932,2.141h-2.932a.938.938,0,0,0-.938.938.938.938,0,0,0,.938.938h2.932a3.084,3.084,0,0,1-2.932,2.141,3.083,3.083,0,0,1-3.078-3.079Z" transform="translate(2984 2258.8)" fill="#44a9fc"/>
  </g>
</svg>
