<svg xmlns="http://www.w3.org/2000/svg" width="32.002" height="32.008" viewBox="0 0 32.002 32.008">
  <g id="valores" transform="translate(-1320 -1154)">
    <rect id="transparent-bg" width="32" height="32" transform="translate(1320 1154)" fill="none"/>
    <path id="valores-2" data-name="valores" d="M-3144.44-1142.07a.625.625,0,0,1-.625-.625v-7.433a3.748,3.748,0,0,1,1.1-2.651l1.52-1.52a2.1,2.1,0,0,1,1.722-.6l1.061.064a.94.94,0,0,0,.85-.256l2.836-2.837a1.18,1.18,0,0,1,1.666,0,1.169,1.169,0,0,1,.346.833,1.167,1.167,0,0,1-.346.833l-4.041,4.042a.938.938,0,0,0-.275.663.937.937,0,0,0,.275.663.938.938,0,0,0,.663.275.936.936,0,0,0,.663-.275l4.041-4.042a3.03,3.03,0,0,0,.9-2.159,3.031,3.031,0,0,0-.895-2.159,3.031,3.031,0,0,0-.883-.615v-3.746a1.919,1.919,0,0,1,.654-1.444,1.921,1.921,0,0,1,1.516-.461,1.92,1.92,0,0,1,1.673,1.9l.023,10.333a3.145,3.145,0,0,1-.921,2.23l-6.267,6.267v2.094a.625.625,0,0,1-.625.625Zm-9.75,0a.625.625,0,0,1-.625-.625v-2.094l-6.267-6.267a3.145,3.145,0,0,1-.921-2.23l.023-10.333a1.922,1.922,0,0,1,1.673-1.9,1.92,1.92,0,0,1,1.516.461,1.921,1.921,0,0,1,.654,1.444v3.746a3.035,3.035,0,0,0-.883.615,3.034,3.034,0,0,0-.9,2.159,3.03,3.03,0,0,0,.9,2.159l4.041,4.042a.935.935,0,0,0,.663.275.934.934,0,0,0,.662-.275.937.937,0,0,0,.275-.663.936.936,0,0,0-.275-.663l-4.041-4.042a1.167,1.167,0,0,1-.345-.833,1.169,1.169,0,0,1,.345-.833,1.181,1.181,0,0,1,1.667,0l2.836,2.836a.937.937,0,0,0,.849.257l1.062-.064a2.1,2.1,0,0,1,1.722.6l1.519,1.52a3.747,3.747,0,0,1,1.1,2.651v7.433a.625.625,0,0,1-.626.625Zm3.248-18.125a.794.794,0,0,1-.625-.305.794.794,0,0,1-.145-.681l.738-2.958a3.176,3.176,0,0,1,3.082-2.408h3.781a3.176,3.176,0,0,1,3.082,2.408l.738,2.958a.793.793,0,0,1-.145.681.793.793,0,0,1-.625.305Zm2.334-9.975a2.824,2.824,0,0,1,1.527-3.691,2.826,2.826,0,0,1,3.691,1.528,2.825,2.825,0,0,1-1.528,3.69,2.82,2.82,0,0,1-1.081.216,2.825,2.825,0,0,1-2.611-1.743Z" transform="translate(4482.003 2328.077)" fill="#44a9fc"/>
  </g>
</svg>
