<svg xmlns="http://www.w3.org/2000/svg" width="32.001" height="32" viewBox="0 0 32.001 32">
  <g id="visao" transform="translate(-923.501 -1150)">
    <rect id="transparent-bg" width="32" height="32" transform="translate(923.501 1150)" fill="none"/>
    <path id="visao-2" data-name="visao" d="M-2779.76-1029.94a.938.938,0,0,1,0-1.25c.286-.319,7.156-7.812,15.761-7.812s15.476,7.493,15.762,7.812a.937.937,0,0,1,0,1.25c-.286.319-7.156,7.813-15.762,7.813S-2779.48-1029.62-2779.76-1029.94Zm9.2-.625A6.57,6.57,0,0,0-2764-1024a6.57,6.57,0,0,0,6.563-6.562,6.57,6.57,0,0,0-6.563-6.563,6.57,6.57,0,0,0-6.56,6.565Zm1.875,0a4.692,4.692,0,0,1,4.687-4.688,4.64,4.64,0,0,1,2.119.529,2.8,2.8,0,0,0-1.181,2.283,2.8,2.8,0,0,0,1.154,2.27,2.8,2.8,0,0,0,2.516.4,4.687,4.687,0,0,1-4.608,3.9,4.693,4.693,0,0,1-4.692-4.685Z" transform="translate(3703.5 2197.002)" fill="#44a9fc"/>
  </g>
</svg>
