<svg xmlns="http://www.w3.org/2000/svg" width="16" height="16.066" viewBox="0 0 16 16.066">
  <path id="whatsapp" d="M452.066,322.126a7.966,7.966,0,0,0-12.537,9.607l-1.129,4.124,4.224-1.106a7.94,7.94,0,0,0,3.806.968h0a7.961,7.961,0,0,0,5.632-13.593Zm-5.635,12.25h0a6.622,6.622,0,0,1-3.371-.922l-.241-.142-2.506.658.67-2.441-.157-.249a6.62,6.62,0,1,1,5.6,3.1Zm3.631-4.958c-.2-.1-1.178-.582-1.358-.646s-.314-.1-.448.1-.513.646-.631.781-.233.149-.432.05a5.41,5.41,0,0,1-1.6-.987,5.917,5.917,0,0,1-1.106-1.377c-.115-.2-.012-.306.087-.406s.2-.233.3-.348a1.283,1.283,0,0,0,.2-.333.369.369,0,0,0-.015-.348c-.05-.1-.448-1.079-.612-1.477s-.325-.337-.448-.34-.249-.008-.383-.008a.733.733,0,0,0-.532.249,2.228,2.228,0,0,0-.7,1.66,3.877,3.877,0,0,0,.811,2.058,8.853,8.853,0,0,0,3.4,3,10.979,10.979,0,0,0,1.136.421,2.736,2.736,0,0,0,1.255.08,2.051,2.051,0,0,0,1.343-.945,1.667,1.667,0,0,0,.115-.945c-.054-.092-.188-.142-.387-.241Z" transform="translate(-438.4 -319.791)" fill="#fff" fill-rule="evenodd"/>
</svg>
