<svg xmlns="http://www.w3.org/2000/svg" xmlns:xlink="http://www.w3.org/1999/xlink" width="128.011" height="128.006" viewBox="0 0 128.011 128.006">
  <defs>
    <linearGradient id="linear-gradient" x1="0.5" y1="1" x2="0.5" gradientUnits="objectBoundingBox">
      <stop offset="0" stop-color="#25cf43"/>
      <stop offset="1" stop-color="#61fd7d"/>
    </linearGradient>
  </defs>
  <g id="whatsapp-logo" transform="translate(-349.897 -240.897)">
    <g id="Icon_Shape" transform="translate(349.9 240.9)">
      <path id="Path_10" data-name="Path 10" d="M477.9,336.423c0,.7-.022,2.213-.066,3.4a67.261,67.261,0,0,1-.679,8.262,27.361,27.361,0,0,1-2.323,6.925,24.287,24.287,0,0,1-4.58,6.289,24.73,24.73,0,0,1-6.289,4.558,27.405,27.405,0,0,1-6.969,2.323,66.592,66.592,0,0,1-8.2.657c-1.183.044-2.7.066-3.4.066H382.377c-.7,0-2.213-.022-3.4-.066a67.23,67.23,0,0,1-8.262-.679,27.356,27.356,0,0,1-6.925-2.323,24.285,24.285,0,0,1-6.289-4.58,24.728,24.728,0,0,1-4.558-6.289A27.4,27.4,0,0,1,350.62,348a66.586,66.586,0,0,1-.657-8.2c-.044-1.183-.066-2.7-.066-3.4v-63.02c0-.7.022-2.213.066-3.4a67.242,67.242,0,0,1,.679-8.262,27.357,27.357,0,0,1,2.323-6.925,24.283,24.283,0,0,1,4.58-6.289,24.727,24.727,0,0,1,6.289-4.558,27.4,27.4,0,0,1,6.969-2.323,66.6,66.6,0,0,1,8.2-.657c1.183-.044,2.7-.066,3.4-.066h63.025c.7,0,2.213.022,3.4.066a67.242,67.242,0,0,1,8.262.679,27.355,27.355,0,0,1,6.925,2.323,24.284,24.284,0,0,1,6.289,4.58,24.727,24.727,0,0,1,4.558,6.289,27.4,27.4,0,0,1,2.323,6.969,66.6,66.6,0,0,1,.657,8.2c.044,1.183.066,2.7.066,3.4Z" transform="translate(-349.9 -240.9)" fill="url(#linear-gradient)"/>
    </g>
    <g id="WA_Logo" transform="translate(369.294 258.19)">
      <g id="Group_49" data-name="Group 49">
        <path id="Path_11" data-name="Path 11" d="M516.677,333.168a45.627,45.627,0,0,0-71.812,55.026L438.4,411.817l24.193-6.333a45.479,45.479,0,0,0,21.8,5.544h.022a45.6,45.6,0,0,0,32.257-77.861ZM484.4,403.336h0a37.927,37.927,0,0,1-19.307-5.281l-1.38-.811-14.354,3.769,3.835-13.981-.9-1.424a37.919,37.919,0,1,1,32.1,17.728Zm20.8-28.4c-1.14-.57-6.75-3.331-7.78-3.7-1.052-.372-1.8-.57-2.564.57s-2.936,3.7-3.616,4.471c-.657.767-1.337.855-2.476.285a30.991,30.991,0,0,1-9.16-5.654,33.889,33.889,0,0,1-6.333-7.889c-.657-1.14-.066-1.753.5-2.323.5-.5,1.14-1.337,1.709-1.994a7.339,7.339,0,0,0,1.14-1.907,2.114,2.114,0,0,0-.088-1.994c-.285-.57-2.564-6.18-3.506-8.459-.92-2.213-1.863-1.928-2.564-1.95-.657-.044-1.424-.044-2.191-.044a4.2,4.2,0,0,0-3.046,1.424,12.759,12.759,0,0,0-3.988,9.511c0,5.61,4.076,11.023,4.646,11.79s8.042,12.272,19.482,17.2a62.881,62.881,0,0,0,6.508,2.411,15.669,15.669,0,0,0,7.188.46c2.191-.329,6.75-2.761,7.692-5.413s.942-4.953.657-5.413c-.31-.528-1.076-.813-2.216-1.382Z" transform="translate(-438.4 -319.8)" fill="#fff" fill-rule="evenodd"/>
      </g>
    </g>
  </g>
</svg>
